TITLE ""
FILE "1Q_t_0020-0028.mp3" MP3
  TRACK 01 AUDIO
    TITLE "1Q_t_0020-0028_01"
    INDEX 01 00:00:00
  TRACK 02 AUDIO
    TITLE "1Q_t_0020-0028_02"
    INDEX 01 00:01:22
  TRACK 03 AUDIO
    TITLE "1Q_t_0020-0028_03"
    INDEX 01 00:01:37
  TRACK 04 AUDIO
    TITLE "1Q_t_0020-0028_04"
    INDEX 01 00:06:19
  TRACK 05 AUDIO
    TITLE "1Q_t_0020-0028_05"
    INDEX 01 00:06:34
  TRACK 06 AUDIO
    TITLE "1Q_t_0020-0028_06"
    INDEX 01 00:11:36
  TRACK 07 AUDIO
    TITLE "1Q_t_0020-0028_07"
    INDEX 01 00:12:12
  TRACK 08 AUDIO
    TITLE "1Q_t_0020-0028_08"
    INDEX 01 00:13:38
  TRACK 09 AUDIO
    TITLE "1Q_t_0020-0028_09"
    INDEX 01 00:13:54
  TRACK 10 AUDIO
    TITLE "1Q_t_0020-0028_10"
    INDEX 01 00:17:56
  TRACK 11 AUDIO
    TITLE "1Q_t_0020-0028_11"
    INDEX 01 00:17:71
  TRACK 12 AUDIO
    TITLE "1Q_t_0020-0028_12"
    INDEX 01 00:23:31
  TRACK 13 AUDIO
    TITLE "1Q_t_0020-0028_13"
    INDEX 01 00:24:13
  TRACK 14 AUDIO
    TITLE "1Q_t_0020-0028_14"
    INDEX 01 00:25:30
  TRACK 15 AUDIO
    TITLE "1Q_t_0020-0028_15"
    INDEX 01 00:25:46
  TRACK 16 AUDIO
    TITLE "1Q_t_0020-0028_16"
    INDEX 01 00:27:66
  TRACK 17 AUDIO
    TITLE "1Q_t_0020-0028_17"
    INDEX 01 00:28:07
  TRACK 18 AUDIO
    TITLE "1Q_t_0020-0028_18"
    INDEX 01 00:32:26
  TRACK 19 AUDIO
    TITLE "1Q_t_0020-0028_19"
    INDEX 01 00:33:04
  TRACK 20 AUDIO
    TITLE "1Q_t_0020-0028_20"
    INDEX 01 00:34:23
  TRACK 21 AUDIO
    TITLE "1Q_t_0020-0028_21"
    INDEX 01 00:34:39
  TRACK 22 AUDIO
    TITLE "1Q_t_0020-0028_22"
    INDEX 01 00:37:72
  TRACK 23 AUDIO
    TITLE "1Q_t_0020-0028_23"
    INDEX 01 00:38:13
  TRACK 24 AUDIO
    TITLE "1Q_t_0020-0028_24"
    INDEX 01 00:42:26
  TRACK 25 AUDIO
    TITLE "1Q_t_0020-0028_25"
    INDEX 01 00:43:06
  TRACK 26 AUDIO
    TITLE "1Q_t_0020-0028_26"
    INDEX 01 00:44:23
  TRACK 27 AUDIO
    TITLE "1Q_t_0020-0028_27"
    INDEX 01 00:44:39
  TRACK 28 AUDIO
    TITLE "1Q_t_0020-0028_28"
    INDEX 01 00:47:69
  TRACK 29 AUDIO
    TITLE "1Q_t_0020-0028_29"
    INDEX 01 00:48:09
  TRACK 30 AUDIO
    TITLE "1Q_t_0020-0028_30"
    INDEX 01 00:52:46
  TRACK 31 AUDIO
    TITLE "1Q_t_0020-0028_31"
    INDEX 01 00:53:24
  TRACK 32 AUDIO
    TITLE "1Q_t_0020-0028_32"
    INDEX 01 00:54:37
  TRACK 33 AUDIO
    TITLE "1Q_t_0020-0028_33"
    INDEX 01 00:54:53
  TRACK 34 AUDIO
    TITLE "1Q_t_0020-0028_34"
    INDEX 01 00:56:75
  TRACK 35 AUDIO
    TITLE "1Q_t_0020-0028_35"
    INDEX 01 00:57:14
  TRACK 36 AUDIO
    TITLE "1Q_t_0020-0028_36"
    INDEX 01 01:00:71
  TRACK 37 AUDIO
    TITLE "1Q_t_0020-0028_37"
    INDEX 01 01:01:49
  TRACK 38 AUDIO
    TITLE "1Q_t_0020-0028_38"
    INDEX 01 01:02:74
  TRACK 39 AUDIO
    TITLE "1Q_t_0020-0028_39"
    INDEX 01 01:03:15
  TRACK 40 AUDIO
    TITLE "1Q_t_0020-0028_40"
    INDEX 01 01:06:52
  TRACK 41 AUDIO
    TITLE "1Q_t_0020-0028_41"
    INDEX 01 01:06:68
  TRACK 42 AUDIO
    TITLE "1Q_t_0020-0028_42"
    INDEX 01 01:11:32
  TRACK 43 AUDIO
    TITLE "1Q_t_0020-0028_43"
    INDEX 01 01:12:12
  TRACK 44 AUDIO
    TITLE "1Q_t_0020-0028_44"
    INDEX 01 01:13:23
  TRACK 45 AUDIO
    TITLE "1Q_t_0020-0028_45"
    INDEX 01 01:13:39
  TRACK 46 AUDIO
    TITLE "1Q_t_0020-0028_46"
    INDEX 01 01:15:43
  TRACK 47 AUDIO
    TITLE "1Q_t_0020-0028_47"
    INDEX 01 01:15:59
  TRACK 48 AUDIO
    TITLE "1Q_t_0020-0028_48"
    INDEX 01 01:21:64
  TRACK 49 AUDIO
    TITLE "1Q_t_0020-0028_49"
    INDEX 01 01:22:40
  TRACK 50 AUDIO
    TITLE "1Q_t_0020-0028_50"
    INDEX 01 01:23:47
  TRACK 51 AUDIO
    TITLE "1Q_t_0020-0028_51"
    INDEX 01 01:24:23
  TRACK 52 AUDIO
    TITLE "1Q_t_0020-0028_52"
    INDEX 01 01:25:46
  TRACK 53 AUDIO
    TITLE "1Q_t_0020-0028_53"
    INDEX 01 01:25:59
  TRACK 54 AUDIO
    TITLE "1Q_t_0020-0028_54"
    INDEX 01 01:28:36
  TRACK 55 AUDIO
    TITLE "1Q_t_0020-0028_55"
    INDEX 01 01:28:50
  TRACK 56 AUDIO
    TITLE "1Q_t_0020-0028_56"
    INDEX 01 01:32:54
